<svg xmlns="http://www.w3.org/2000/svg" width="1781.497" height="811.47" viewBox="0 0 1781.497 811.47">
  <g id="bg-section-top-desktop-2-final" transform="translate(-5498.034 -2965)">
    <g id="bg-section-top-desktop-2-final-2" data-name="bg-section-top-desktop-2-final">
      <g id="bg-section-top-desktop-2-final-3" data-name="bg-section-top-desktop-2-final">
        <g id="Group_65" data-name="Group 65">
          <g id="bg-section-top-desktop-2" transform="translate(5868.84 2979)">
            <g id="Group_8" data-name="Group 8">
              <path id="Path_10" data-name="Path 10" d="M-5.845,142.308Q384.662-71.154,681.673,35.578c297.011,106.73,536.472,92.279,752.482,0q216.009-92.28,0,625.271-353.3,152.363-603.526,61.208C580.4,630.9,200.12,630.9.438,779.207q-199.684,148.3-6.283-636.9Z" transform="translate(-155 -14)" fill="#f6fbff" fill-rule="evenodd"/>
              <path id="Path_11" data-name="Path 11" d="M760,120h560V680H760Z" fill="none" fill-rule="evenodd"/>
            </g>
          </g>
          <path id="Path_389" data-name="Path 389" d="M5626.241,3773.229s-33.7-.912-55.015-8.752c-40.011-26.8-47.908-99.106-54.859-143.79,10.077-119.112-65.332-283.528,143.844-503.107,31.271-22.605,300.087-131.657,403.373-140.311,184.083,69.495,168.9,498.18,168.9,498.18l-554.351,297.781Z" fill="#f6fbff"/>
          <path id="Path_390" data-name="Path 390" d="M7256,3092.135s141.109,582.091-267.783,589.233S7256,3092.135,7256,3092.135Z" fill="#f6fbff"/>
        </g>
      </g>
      <path id="Path_391" data-name="Path 391" d="M5502.958,3312.582c-.575,136.809-20,269.845,22.5,385.321s161.118,69.557,161.118,69.557,431.064-822.143,116.735-714.1S5503.533,3175.773,5502.958,3312.582Z" fill="#f6fbff"/>
    </g>
  </g>
</svg>
