<svg xmlns="http://www.w3.org/2000/svg" width="1568.774" height="1015.504" viewBox="0 0 1568.774 1015.504">
  <g id="bg-section-bottom-desktop-22" transform="translate(-3686.393 -2545.798)">
    <g id="Group_65" data-name="Group 65" transform="translate(3686.393 2545.798)">
      <g id="Group_67" data-name="Group 67" transform="translate(0)">
        <g id="bg-section-top-desktop-2" transform="translate(106.682 58.932)">
          <g id="Group_8" data-name="Group 8" transform="translate(0 0)">
            <path id="Path_10" data-name="Path 10" d="M-18.473,164.934Q320.21-82.467,577.8,41.235c257.595,123.7,465.277,106.95,652.62,0q187.343-106.952,0,724.683Q924.013,942.5,706.993,836.857C489.972,731.209,160.158,731.209-13.024,903.093q-173.184,171.884-5.449-738.16Z" transform="translate(101 0)" fill="#f6fbff" fill-rule="evenodd"/>
            <path id="Path_11" data-name="Path 11" d="M760,120h485.683V769.034H760Z" transform="translate(-13.263 19.078)" fill="none" fill-rule="evenodd"/>
          </g>
        </g>
        <path id="Path_389" data-name="Path 389" d="M-1.877,3.147l290.452-2.1,67.678-96.236s25.488.116,44.885,23.913,21.428,47.11,29.6,91.915,15.28,269.766,3.1,424.922l-7.051,56.647-9.163,43.616-8.486,32.926L396.481,605.4,384.5,633.061l-21.851,29.787-17.621,21.276L322.47,701.145l-27.136,18.883-67.668,20.213-73.306,8.06H-.7Z" transform="translate(1128.4 184.902)" fill="#f6fbff"/>
        <path id="Path_390" data-name="Path 390" d="M257.783,285.287,568.753,18.754l37.89-16.418s8.045-11.469,29.778,16.418,24.073,28.932,48.824,106.715S731.4,645.907,695.813,764.114s-59.393,131.341-59.393,131.341S563.917,1004.5,426.2,1013.662s-279.05-16.418-400.741-64.029S257.783,285.287,257.783,285.287Z" transform="translate(714.638 1015.504) rotate(180)" fill="#f6fbff"/>
      </g>
    </g>
  </g>
</svg>
